<svg xmlns="http://www.w3.org/2000/svg" width="900" height="500" viewBox="0 0 900 500">
<rect width="100%" height="100%" fill="white"/>
<text x="450" y="25" text-anchor="middle" font-family="sans-serif" font-size="18">Reconstructed cost distribution (compatible workloads)</text>
<line x1="85" y1="430" x2="870" y2="430" stroke="#111"/>
<line x1="85" y1="45" x2="85" y2="430" stroke="#111"/>
<text x="477.5" y="480" text-anchor="middle" font-family="sans-serif">Workload percentile</text>
<text x="20" y="237.5" transform="rotate(-90 20 237.5)" text-anchor="middle" font-family="sans-serif">Cost USD (log scale)</text>
<polyline points="85.00,430.00 86.78,429.02 88.56,425.27 90.34,425.14 92.12,425.04 93.90,422.68 95.68,422.36 97.46,417.57 99.24,413.75 101.02,413.22 102.80,412.00 104.58,410.33 106.36,409.09 108.14,406.72 109.92,405.19 111.70,401.52 113.48,400.82 115.26,400.73 117.04,399.83 118.82,399.70 120.60,399.34 122.38,398.77 124.16,398.09 125.94,397.39 127.72,396.93 129.50,396.67 131.28,396.03 133.06,394.85 134.84,392.42 136.62,392.35 138.40,391.95 140.18,391.76 141.96,391.66 143.74,391.52 145.52,391.48 147.30,391.33 149.08,390.82 150.86,390.79 152.64,389.41 154.42,389.32 156.20,387.51 157.98,387.31 159.76,387.30 161.54,386.97 163.32,386.92 165.10,385.74 166.88,383.37 168.66,383.37 170.44,382.83 172.22,381.74 174.00,381.70 175.78,381.12 177.56,381.02 179.34,380.26 181.12,378.71 182.90,378.29 184.68,378.00 186.46,376.93 188.24,376.48 190.02,375.67 191.80,375.19 193.58,373.86 195.36,372.24 197.14,370.67 198.92,368.80 200.70,368.70 202.48,368.45 204.26,367.75 206.04,367.50 207.82,366.72 209.60,366.48 211.38,366.45 213.16,366.05 214.94,365.60 216.72,365.30 218.50,364.98 220.28,364.94 222.06,364.67 223.84,364.59 225.62,364.02 227.40,363.73 229.18,363.70 230.96,363.59 232.74,362.79 234.52,362.69 236.30,361.49 238.08,360.86 239.86,359.74 241.64,359.74 243.42,359.71 245.20,359.43 246.98,359.43 248.76,359.34 250.54,359.18 252.32,358.68 254.10,356.90 255.88,356.01 257.66,355.01 259.44,354.27 261.22,354.20 263.00,353.71 264.78,351.81 266.56,350.28 268.34,350.16 270.12,349.16 271.90,348.97 273.68,348.15 275.46,347.67 277.24,346.63 279.02,346.56 280.80,346.41 282.59,346.32 284.37,346.07 286.15,344.52 287.93,343.39 289.71,342.56 291.49,340.33 293.27,339.67 295.05,338.85 296.83,338.41 298.61,338.17 300.39,337.74 302.17,336.97 303.95,336.36 305.73,335.87 307.51,335.64 309.29,333.61 311.07,333.15 312.85,331.28 314.63,328.18 316.41,328.18 318.19,327.84 319.97,327.47 321.75,325.77 323.53,325.62 325.31,325.62 327.09,325.62 328.87,325.36 330.65,324.20 332.43,323.71 334.21,323.56 335.99,323.00 337.77,321.38 339.55,321.27 341.33,321.22 343.11,321.17 344.89,319.37 346.67,318.51 348.45,317.77 350.23,317.53 352.01,317.15 353.79,316.76 355.57,316.70 357.35,315.10 359.13,314.79 360.91,314.07 362.69,313.13 364.47,313.00 366.25,311.54 368.03,309.22 369.81,309.19 371.59,308.53 373.37,307.98 375.15,307.76 376.93,307.58 378.71,306.58 380.49,306.07 382.27,305.80 384.05,305.58 385.83,304.79 387.61,304.67 389.39,301.82 391.17,299.97 392.95,299.67 394.73,299.28 396.51,298.28 398.29,298.07 400.07,297.55 401.85,296.23 403.63,295.31 405.41,293.36 407.19,292.43 408.97,292.39 410.75,290.87 412.53,290.41 414.31,289.45 416.09,288.55 417.87,287.54 419.65,287.27 421.43,287.05 423.21,286.84 424.99,286.11 426.77,285.51 428.55,284.60 430.33,283.67 432.11,282.61 433.89,282.54 435.67,279.76 437.45,279.72 439.23,279.01 441.01,278.46 442.79,277.62 444.57,277.48 446.35,276.78 448.13,276.16 449.91,276.15 451.69,276.14 453.47,276.14 455.25,275.49 457.03,274.62 458.81,273.50 460.59,273.49 462.37,273.47 464.15,272.92 465.93,272.12 467.71,271.09 469.49,270.54 471.27,270.32 473.05,270.08 474.83,267.98 476.61,266.23 478.39,265.11 480.17,264.73 481.95,264.17 483.73,261.90 485.51,261.26 487.29,261.26 489.07,261.26 490.85,261.25 492.63,261.25 494.41,261.23 496.19,260.71 497.97,258.88 499.75,258.87 501.53,258.64 503.31,258.59 505.09,258.36 506.87,258.29 508.65,257.86 510.43,257.73 512.21,257.71 513.99,257.63 515.77,257.63 517.55,257.58 519.33,257.36 521.11,257.35 522.89,257.34 524.67,257.34 526.45,256.43 528.23,256.02 530.01,255.27 531.79,255.19 533.57,254.77 535.35,254.76 537.13,254.76 538.91,254.76 540.69,254.70 542.47,254.53 544.25,253.43 546.03,252.90 547.81,252.86 549.59,252.74 551.37,250.42 553.15,249.12 554.93,248.87 556.71,248.86 558.49,248.64 560.27,247.77 562.05,247.12 563.83,246.17 565.61,245.12 567.39,244.50 569.17,243.52 570.95,242.90 572.73,242.80 574.51,242.70 576.29,242.66 578.07,242.63 579.85,242.59 581.63,242.52 583.41,242.06 585.19,241.98 586.97,241.50 588.75,241.48 590.53,241.37 592.31,241.31 594.09,241.30 595.87,241.24 597.65,241.02 599.43,240.96 601.21,240.88 602.99,240.88 604.77,240.76 606.55,240.62 608.33,240.44 610.11,240.39 611.89,240.32 613.67,239.33 615.45,238.82 617.23,238.54 619.01,238.43 620.79,238.04 622.57,237.99 624.35,237.93 626.13,236.49 627.91,236.39 629.69,235.88 631.47,235.66 633.25,235.66 635.03,235.65 636.81,235.65 638.59,235.44 640.37,233.92 642.15,233.69 643.93,233.60 645.71,233.53 647.49,233.15 649.27,232.90 651.05,232.69 652.83,232.30 654.61,232.06 656.39,231.90 658.17,230.45 659.95,229.77 661.73,228.27 663.51,228.13 665.29,227.87 667.07,227.34 668.85,227.26 670.63,226.88 672.41,225.34 674.20,225.20 675.98,224.77 677.76,224.68 679.54,224.56 681.32,223.71 683.10,223.70 684.88,223.69 686.66,223.67 688.44,223.65 690.22,223.64 692.00,223.11 693.78,223.08 695.56,223.06 697.34,222.38 699.12,221.56 700.90,220.38 702.68,217.63 704.46,217.62 706.24,217.43 708.02,217.29 709.80,217.12 711.58,215.71 713.36,215.35 715.14,214.78 716.92,213.80 718.70,213.61 720.48,212.90 722.26,212.73 724.04,212.56 725.82,212.22 727.60,212.18 729.38,210.62 731.16,210.62 732.94,210.61 734.72,210.44 736.50,210.35 738.28,209.73 740.06,209.58 741.84,209.42 743.62,209.21 745.40,209.19 747.18,208.01 748.96,206.29 750.74,205.17 752.52,204.11 754.30,203.99 756.08,202.88 757.86,202.78 759.64,202.67 761.42,201.80 763.20,201.76 764.98,200.63 766.76,200.46 768.54,200.19 770.32,199.31 772.10,198.59 773.88,198.49 775.66,197.35 777.44,196.16 779.22,196.06 781.00,195.33 782.78,194.67 784.56,194.65 786.34,193.80 788.12,193.45 789.90,191.59 791.68,191.39 793.46,191.18 795.24,189.97 797.02,189.91 798.80,189.46 800.58,187.18 802.36,185.22 804.14,183.06 805.92,181.90 807.70,181.30 809.48,180.95 811.26,176.81 813.04,176.81 814.82,176.81 816.60,176.80 818.38,176.80 820.16,176.80 821.94,176.80 823.72,176.80 825.50,176.79 827.28,175.91 829.06,173.37 830.84,173.16 832.62,168.59 834.40,167.52 836.18,167.13 837.96,167.12 839.74,166.85 841.52,164.90 843.30,163.61 845.08,160.70 846.86,159.93 848.64,158.95 850.42,157.97 852.20,157.25 853.98,156.58 855.76,156.19 857.54,154.83 859.32,154.51 861.10,153.30 862.88,151.14 864.66,150.74 866.44,150.73 868.22,149.55 870.00,146.59" fill="none" stroke="#2563eb" stroke-width="2"/>
<text x="100" y="65" font-family="sans-serif" fill="#2563eb">gpt-5.4-nano</text>
<polyline points="85.00,328.41 86.78,327.43 88.56,323.68 90.34,323.55 92.12,323.45 93.90,321.09 95.68,320.77 97.46,315.98 99.24,312.16 101.02,311.63 102.80,310.42 104.58,308.74 106.36,307.50 108.14,305.13 109.92,303.60 111.70,299.93 113.48,299.23 115.26,299.14 117.04,298.24 118.82,298.11 120.60,297.75 122.38,297.18 124.16,296.50 125.94,295.80 127.72,295.34 129.50,295.08 131.28,294.44 133.06,293.26 134.84,290.83 136.62,290.76 138.40,290.36 140.18,290.17 141.96,290.07 143.74,289.93 145.52,289.89 147.30,289.74 149.08,289.23 150.86,289.20 152.64,287.82 154.42,287.73 156.20,285.92 157.98,285.72 159.76,285.71 161.54,285.38 163.32,285.33 165.10,284.15 166.88,281.78 168.66,281.78 170.44,281.24 172.22,280.15 174.00,280.11 175.78,279.53 177.56,279.43 179.34,278.67 181.12,277.12 182.90,276.70 184.68,276.41 186.46,275.34 188.24,274.89 190.02,274.08 191.80,273.60 193.58,272.27 195.36,270.65 197.14,269.08 198.92,267.21 200.70,267.11 202.48,266.86 204.26,266.16 206.04,265.91 207.82,265.13 209.60,264.89 211.38,264.86 213.16,264.46 214.94,264.01 216.72,263.71 218.50,263.39 220.28,263.35 222.06,263.08 223.84,263.00 225.62,262.43 227.40,262.14 229.18,262.11 230.96,262.00 232.74,261.20 234.52,261.10 236.30,259.90 238.08,259.27 239.86,258.15 241.64,258.15 243.42,258.12 245.20,257.84 246.98,257.84 248.76,257.75 250.54,257.59 252.32,257.09 254.10,255.31 255.88,254.42 257.66,253.42 259.44,252.68 261.22,252.61 263.00,252.12 264.78,250.22 266.56,248.69 268.34,248.57 270.12,247.57 271.90,247.38 273.68,246.56 275.46,246.08 277.24,245.04 279.02,244.97 280.80,244.82 282.59,244.73 284.37,244.48 286.15,242.93 287.93,241.80 289.71,240.97 291.49,238.74 293.27,238.08 295.05,237.26 296.83,236.82 298.61,236.58 300.39,236.15 302.17,235.38 303.95,234.77 305.73,234.28 307.51,234.04 309.29,232.02 311.07,231.56 312.85,229.69 314.63,226.59 316.41,226.59 318.19,226.25 319.97,225.88 321.75,224.18 323.53,224.03 325.31,224.03 327.09,224.03 328.87,223.77 330.65,222.61 332.43,222.12 334.21,221.97 335.99,221.41 337.77,219.79 339.55,219.68 341.33,219.63 343.11,219.58 344.89,217.78 346.67,216.91 348.45,216.18 350.23,215.94 352.01,215.56 353.79,215.17 355.57,215.11 357.35,213.51 359.13,213.20 360.91,212.48 362.69,211.54 364.47,211.41 366.25,209.95 368.03,207.63 369.81,207.60 371.59,206.94 373.37,206.39 375.15,206.17 376.93,205.99 378.71,204.99 380.49,204.48 382.27,204.21 384.05,203.99 385.83,203.20 387.61,203.08 389.39,200.23 391.17,198.38 392.95,198.08 394.73,197.69 396.51,196.69 398.29,196.48 400.07,195.96 401.85,194.64 403.63,193.72 405.41,191.77 407.19,190.84 408.97,190.80 410.75,189.28 412.53,188.82 414.31,187.86 416.09,186.96 417.87,185.95 419.65,185.68 421.43,185.46 423.21,185.24 424.99,184.52 426.77,183.92 428.55,183.01 430.33,182.08 432.11,181.02 433.89,180.95 435.67,178.17 437.45,178.13 439.23,177.42 441.01,176.87 442.79,176.03 444.57,175.89 446.35,175.19 448.13,174.57 449.91,174.56 451.69,174.55 453.47,174.55 455.25,173.90 457.03,173.03 458.81,171.91 460.59,171.90 462.37,171.88 464.15,171.33 465.93,170.53 467.71,169.50 469.49,168.95 471.27,168.73 473.05,168.49 474.83,166.39 476.61,164.64 478.39,163.52 480.17,163.14 481.95,162.57 483.73,160.31 485.51,159.67 487.29,159.67 489.07,159.67 490.85,159.66 492.63,159.66 494.41,159.64 496.19,159.12 497.97,157.29 499.75,157.28 501.53,157.05 503.31,157.00 505.09,156.77 506.87,156.70 508.65,156.27 510.43,156.14 512.21,156.12 513.99,156.04 515.77,156.04 517.55,155.99 519.33,155.77 521.11,155.76 522.89,155.75 524.67,155.75 526.45,154.84 528.23,154.43 530.01,153.68 531.79,153.60 533.57,153.18 535.35,153.17 537.13,153.17 538.91,153.17 540.69,153.11 542.47,152.94 544.25,151.84 546.03,151.31 547.81,151.27 549.59,151.15 551.37,148.83 553.15,147.53 554.93,147.28 556.71,147.27 558.49,147.05 560.27,146.18 562.05,145.53 563.83,144.58 565.61,143.53 567.39,142.90 569.17,141.93 570.95,141.31 572.73,141.21 574.51,141.11 576.29,141.07 578.07,141.04 579.85,141.00 581.63,140.93 583.41,140.47 585.19,140.39 586.97,139.91 588.75,139.89 590.53,139.78 592.31,139.72 594.09,139.71 595.87,139.65 597.65,139.43 599.43,139.37 601.21,139.29 602.99,139.29 604.77,139.17 606.55,139.03 608.33,138.85 610.11,138.80 611.89,138.73 613.67,137.74 615.45,137.23 617.23,136.95 619.01,136.84 620.79,136.45 622.57,136.40 624.35,136.34 626.13,134.90 627.91,134.80 629.69,134.29 631.47,134.07 633.25,134.07 635.03,134.06 636.81,134.06 638.59,133.85 640.37,132.33 642.15,132.10 643.93,132.01 645.71,131.94 647.49,131.56 649.27,131.31 651.05,131.09 652.83,130.71 654.61,130.47 656.39,130.31 658.17,128.86 659.95,128.18 661.73,126.68 663.51,126.54 665.29,126.28 667.07,125.75 668.85,125.67 670.63,125.29 672.41,123.75 674.20,123.61 675.98,123.18 677.76,123.09 679.54,122.97 681.32,122.12 683.10,122.11 684.88,122.10 686.66,122.08 688.44,122.05 690.22,122.05 692.00,121.52 693.78,121.49 695.56,121.47 697.34,120.78 699.12,119.97 700.90,118.79 702.68,116.04 704.46,116.03 706.24,115.84 708.02,115.70 709.80,115.53 711.58,114.12 713.36,113.76 715.14,113.19 716.92,112.21 718.70,112.02 720.48,111.31 722.26,111.14 724.04,110.97 725.82,110.63 727.60,110.59 729.38,109.03 731.16,109.03 732.94,109.02 734.72,108.85 736.50,108.76 738.28,108.14 740.06,107.99 741.84,107.82 743.62,107.62 745.40,107.60 747.18,106.42 748.96,104.70 750.74,103.58 752.52,102.52 754.30,102.40 756.08,101.29 757.86,101.19 759.64,101.08 761.42,100.21 763.20,100.17 764.98,99.04 766.76,98.87 768.54,98.60 770.32,97.72 772.10,97.00 773.88,96.90 775.66,95.76 777.44,94.57 779.22,94.46 781.00,93.74 782.78,93.08 784.56,93.06 786.34,92.21 788.12,91.86 789.90,90.00 791.68,89.80 793.46,89.59 795.24,88.38 797.02,88.32 798.80,87.87 800.58,85.59 802.36,83.63 804.14,81.46 805.92,80.31 807.70,79.71 809.48,79.35 811.26,75.22 813.04,75.22 814.82,75.22 816.60,75.21 818.38,75.21 820.16,75.21 821.94,75.21 823.72,75.20 825.50,75.20 827.28,74.32 829.06,71.78 830.84,71.57 832.62,66.99 834.40,65.92 836.18,65.53 837.96,65.53 839.74,65.26 841.52,63.31 843.30,62.02 845.08,59.11 846.86,58.34 848.64,57.36 850.42,56.38 852.20,55.66 853.98,54.99 855.76,54.60 857.54,53.24 859.32,52.92 861.10,51.71 862.88,49.55 864.66,49.15 866.44,49.14 868.22,47.96 870.00,45.00" fill="none" stroke="#dc2626" stroke-width="2"/>
<text x="100" y="87" font-family="sans-serif" fill="#dc2626">gpt-5.4-mini</text>
<text x="85.0" y="455" text-anchor="middle" font-family="sans-serif" font-size="12">0%</text>
<text x="281.25" y="455" text-anchor="middle" font-family="sans-serif" font-size="12">25%</text>
<text x="477.5" y="455" text-anchor="middle" font-family="sans-serif" font-size="12">50%</text>
<text x="673.75" y="455" text-anchor="middle" font-family="sans-serif" font-size="12">75%</text>
<text x="870.0" y="455" text-anchor="middle" font-family="sans-serif" font-size="12">100%</text>
</svg>