<svg xmlns="http://www.w3.org/2000/svg" width="900" height="500" viewBox="0 0 900 500">
<rect width="100%" height="100%" fill="white"/>
<text x="450" y="27" text-anchor="middle" font-family="sans-serif" font-size="18">Share meeting 30% margin target</text>
<line x1="75" y1="410" x2="870" y2="410" stroke="#111"/>
<line x1="75" y1="50" x2="75" y2="410" stroke="#111"/>
<text x="65" y="414.0" text-anchor="end" font-family="sans-serif" font-size="12">0%</text>
<line x1="75" y1="410.0" x2="870" y2="410.0" stroke="#ddd"/>
<text x="65" y="342.0" text-anchor="end" font-family="sans-serif" font-size="12">20%</text>
<line x1="75" y1="338.0" x2="870" y2="338.0" stroke="#ddd"/>
<text x="65" y="270.0" text-anchor="end" font-family="sans-serif" font-size="12">40%</text>
<line x1="75" y1="266.0" x2="870" y2="266.0" stroke="#ddd"/>
<text x="65" y="198.0" text-anchor="end" font-family="sans-serif" font-size="12">60%</text>
<line x1="75" y1="194.0" x2="870" y2="194.0" stroke="#ddd"/>
<text x="65" y="126.0" text-anchor="end" font-family="sans-serif" font-size="12">80%</text>
<line x1="75" y1="122.0" x2="870" y2="122.0" stroke="#ddd"/>
<text x="65" y="54.0" text-anchor="end" font-family="sans-serif" font-size="12">100%</text>
<line x1="75" y1="50.0" x2="870" y2="50.0" stroke="#ddd"/>
<rect x="108.12" y="410.00" width="53.00" height="0.00" fill="#2563eb"/>
<rect x="174.38" y="410.00" width="53.00" height="0.00" fill="#dc2626"/>
<text x="174.375" y="435" text-anchor="middle" font-family="sans-serif" font-size="12">$0.001</text>
<rect x="306.88" y="374.98" width="53.00" height="35.02" fill="#2563eb"/>
<rect x="373.12" y="410.00" width="53.00" height="0.00" fill="#dc2626"/>
<text x="373.125" y="435" text-anchor="middle" font-family="sans-serif" font-size="12">$0.005</text>
<rect x="505.62" y="307.38" width="53.00" height="102.62" fill="#2563eb"/>
<rect x="571.88" y="410.00" width="53.00" height="0.00" fill="#dc2626"/>
<text x="571.875" y="435" text-anchor="middle" font-family="sans-serif" font-size="12">$0.01</text>
<rect x="704.38" y="111.09" width="53.00" height="298.91" fill="#2563eb"/>
<rect x="770.62" y="281.31" width="53.00" height="128.69" fill="#dc2626"/>
<text x="770.625" y="435" text-anchor="middle" font-family="sans-serif" font-size="12">$0.05</text>
<rect x="75" y="465" width="14" height="14" fill="#2563eb"/>
<text x="95" y="477" font-family="sans-serif" font-size="12">gpt-5.4-nano</text>
<rect x="265" y="465" width="14" height="14" fill="#dc2626"/>
<text x="285" y="477" font-family="sans-serif" font-size="12">gpt-5.4-mini</text>
</svg>